<mxfile host="app.diagrams.net" modified="2024-03-24T02:50:08.302Z" agent="Mozilla/5.0 (Windows NT 10.0; Win64; x64) AppleWebKit/537.36 (KHTML, like Gecko) Chrome/122.0.0.0 Safari/537.36 Edg/122.0.0.0" version="24.0.7" etag="Yu-Ds0OOO5xPG0gWIWGd" type="github">
  <diagram name="第 1 页" id="ZjP1DIeuljV_LwRXSMWU">
    <mxGraphModel>
      <root>
        <mxCell id="0" />
        <mxCell id="1" parent="0" />
      </root>
    </mxGraphModel>
  </diagram>
</mxfile>
